%TF.GenerationSoftware,KiCad,Pcbnew,7.0.8*%
%TF.CreationDate,2024-04-30T13:20:46-05:00*%
%TF.ProjectId,me433_board,6d653433-335f-4626-9f61-72642e6b6963,rev?*%
%TF.SameCoordinates,Original*%
%TF.FileFunction,Copper,L1,Top*%
%TF.FilePolarity,Positive*%
%FSLAX46Y46*%
G04 Gerber Fmt 4.6, Leading zero omitted, Abs format (unit mm)*
G04 Created by KiCad (PCBNEW 7.0.8) date 2024-04-30 13:20:46*
%MOMM*%
%LPD*%
G01*
G04 APERTURE LIST*
G04 Aperture macros list*
%AMRoundRect*
0 Rectangle with rounded corners*
0 $1 Rounding radius*
0 $2 $3 $4 $5 $6 $7 $8 $9 X,Y pos of 4 corners*
0 Add a 4 corners polygon primitive as box body*
4,1,4,$2,$3,$4,$5,$6,$7,$8,$9,$2,$3,0*
0 Add four circle primitives for the rounded corners*
1,1,$1+$1,$2,$3*
1,1,$1+$1,$4,$5*
1,1,$1+$1,$6,$7*
1,1,$1+$1,$8,$9*
0 Add four rect primitives between the rounded corners*
20,1,$1+$1,$2,$3,$4,$5,0*
20,1,$1+$1,$4,$5,$6,$7,0*
20,1,$1+$1,$6,$7,$8,$9,0*
20,1,$1+$1,$8,$9,$2,$3,0*%
G04 Aperture macros list end*
%TA.AperFunction,ComponentPad*%
%ADD10R,1.700000X1.700000*%
%TD*%
%TA.AperFunction,ComponentPad*%
%ADD11O,1.700000X1.700000*%
%TD*%
%TA.AperFunction,SMDPad,CuDef*%
%ADD12RoundRect,0.250000X-0.350000X-0.450000X0.350000X-0.450000X0.350000X0.450000X-0.350000X0.450000X0*%
%TD*%
%TA.AperFunction,SMDPad,CuDef*%
%ADD13RoundRect,0.250000X-0.325000X-0.450000X0.325000X-0.450000X0.325000X0.450000X-0.325000X0.450000X0*%
%TD*%
%TA.AperFunction,ViaPad*%
%ADD14C,0.800000*%
%TD*%
%TA.AperFunction,Conductor*%
%ADD15C,0.250000*%
%TD*%
G04 APERTURE END LIST*
D10*
%TO.P,J2,1,Pin_1*%
%TO.N,unconnected-(J2-Pin_1-Pad1)*%
X147320000Y-78740000D03*
D11*
%TO.P,J2,2,Pin_2*%
%TO.N,unconnected-(J2-Pin_2-Pad2)*%
X147320000Y-81280000D03*
%TD*%
D10*
%TO.P,J1,1,Pin_1*%
%TO.N,VCC*%
X165100000Y-81280000D03*
D11*
%TO.P,J1,2,Pin_2*%
%TO.N,GND*%
X162560000Y-81280000D03*
%TD*%
D12*
%TO.P,R1,1*%
%TO.N,Net-(D1-A)*%
X165640000Y-88900000D03*
%TO.P,R1,2*%
%TO.N,VCC*%
X167640000Y-88900000D03*
%TD*%
D13*
%TO.P,D1,1,K*%
%TO.N,GND*%
X160020000Y-88900000D03*
%TO.P,D1,2,A*%
%TO.N,Net-(D1-A)*%
X162070000Y-88900000D03*
%TD*%
D14*
%TO.N,GND*%
X154940000Y-81280000D03*
X154940000Y-86360000D03*
%TD*%
D15*
%TO.N,Net-(D1-A)*%
X162070000Y-88900000D02*
X165640000Y-88900000D01*
%TO.N,VCC*%
X167640000Y-83820000D02*
X167640000Y-88900000D01*
X165100000Y-81280000D02*
X167640000Y-83820000D01*
%TO.N,GND*%
X154940000Y-86360000D02*
X157480000Y-86360000D01*
X157480000Y-86360000D02*
X160020000Y-88900000D01*
X162990000Y-81280000D02*
X154940000Y-81280000D01*
%TD*%
%TA.AperFunction,Conductor*%
%TO.N,GND*%
G36*
X180283039Y-68599685D02*
G01*
X180328794Y-68652489D01*
X180340000Y-68704000D01*
X180340000Y-98936000D01*
X180320315Y-99003039D01*
X180267511Y-99048794D01*
X180216000Y-99060000D01*
X139824000Y-99060000D01*
X139756961Y-99040315D01*
X139711206Y-98987511D01*
X139700000Y-98936000D01*
X139700000Y-89150000D01*
X158945001Y-89150000D01*
X158945001Y-89399986D01*
X158955494Y-89502697D01*
X159010641Y-89669119D01*
X159010643Y-89669124D01*
X159102684Y-89818345D01*
X159226654Y-89942315D01*
X159375875Y-90034356D01*
X159375880Y-90034358D01*
X159542302Y-90089505D01*
X159542309Y-90089506D01*
X159645019Y-90099999D01*
X159769999Y-90099999D01*
X160270000Y-90099999D01*
X160394972Y-90099999D01*
X160394986Y-90099998D01*
X160497697Y-90089505D01*
X160664119Y-90034358D01*
X160664124Y-90034356D01*
X160813345Y-89942315D01*
X160937318Y-89818342D01*
X160939165Y-89815348D01*
X160940969Y-89813724D01*
X160941798Y-89812677D01*
X160941976Y-89812818D01*
X160991110Y-89768621D01*
X161060073Y-89757396D01*
X161124156Y-89785236D01*
X161150243Y-89815341D01*
X161152288Y-89818656D01*
X161276344Y-89942712D01*
X161425666Y-90034814D01*
X161592203Y-90089999D01*
X161694991Y-90100500D01*
X162445008Y-90100499D01*
X162445016Y-90100498D01*
X162445019Y-90100498D01*
X162501302Y-90094748D01*
X162547797Y-90089999D01*
X162714334Y-90034814D01*
X162863656Y-89942712D01*
X162987712Y-89818656D01*
X163079814Y-89669334D01*
X163099311Y-89610493D01*
X163139084Y-89553051D01*
X163203600Y-89526228D01*
X163217017Y-89525500D01*
X164467983Y-89525500D01*
X164535022Y-89545185D01*
X164580777Y-89597989D01*
X164585686Y-89610489D01*
X164605186Y-89669334D01*
X164697288Y-89818656D01*
X164821344Y-89942712D01*
X164970666Y-90034814D01*
X165137203Y-90089999D01*
X165239991Y-90100500D01*
X166040008Y-90100499D01*
X166040016Y-90100498D01*
X166040019Y-90100498D01*
X166096302Y-90094748D01*
X166142797Y-90089999D01*
X166309334Y-90034814D01*
X166458656Y-89942712D01*
X166552319Y-89849049D01*
X166613642Y-89815564D01*
X166683334Y-89820548D01*
X166727681Y-89849049D01*
X166821344Y-89942712D01*
X166970666Y-90034814D01*
X167137203Y-90089999D01*
X167239991Y-90100500D01*
X168040008Y-90100499D01*
X168040016Y-90100498D01*
X168040019Y-90100498D01*
X168096302Y-90094748D01*
X168142797Y-90089999D01*
X168309334Y-90034814D01*
X168458656Y-89942712D01*
X168582712Y-89818656D01*
X168674814Y-89669334D01*
X168729999Y-89502797D01*
X168740500Y-89400009D01*
X168740499Y-88399992D01*
X168729999Y-88297203D01*
X168674814Y-88130666D01*
X168582712Y-87981344D01*
X168458656Y-87857288D01*
X168324402Y-87774480D01*
X168277679Y-87722533D01*
X168265500Y-87668942D01*
X168265500Y-83902737D01*
X168267224Y-83887123D01*
X168266938Y-83887096D01*
X168267672Y-83879333D01*
X168265500Y-83810202D01*
X168265500Y-83780651D01*
X168265500Y-83780650D01*
X168264629Y-83773759D01*
X168264172Y-83767945D01*
X168262709Y-83721374D01*
X168262709Y-83721372D01*
X168257120Y-83702137D01*
X168253174Y-83683084D01*
X168250664Y-83663208D01*
X168233501Y-83619859D01*
X168231614Y-83614346D01*
X168218617Y-83569610D01*
X168218616Y-83569608D01*
X168208421Y-83552369D01*
X168199860Y-83534893D01*
X168192486Y-83516269D01*
X168192486Y-83516267D01*
X168182474Y-83502488D01*
X168165083Y-83478550D01*
X168161900Y-83473705D01*
X168138170Y-83433579D01*
X168138165Y-83433573D01*
X168124005Y-83419413D01*
X168111370Y-83404620D01*
X168099593Y-83388412D01*
X168063693Y-83358713D01*
X168059381Y-83354790D01*
X166486818Y-81782227D01*
X166453333Y-81720904D01*
X166450499Y-81694546D01*
X166450499Y-80382129D01*
X166450498Y-80382123D01*
X166444091Y-80322516D01*
X166393797Y-80187671D01*
X166393793Y-80187664D01*
X166307547Y-80072455D01*
X166307544Y-80072452D01*
X166192335Y-79986206D01*
X166192328Y-79986202D01*
X166057482Y-79935908D01*
X166057483Y-79935908D01*
X165997883Y-79929501D01*
X165997881Y-79929500D01*
X165997873Y-79929500D01*
X165997864Y-79929500D01*
X164202129Y-79929500D01*
X164202123Y-79929501D01*
X164142516Y-79935908D01*
X164007671Y-79986202D01*
X164007664Y-79986206D01*
X163892455Y-80072452D01*
X163892452Y-80072455D01*
X163806206Y-80187664D01*
X163806202Y-80187671D01*
X163756997Y-80319598D01*
X163715126Y-80375532D01*
X163649661Y-80399949D01*
X163581388Y-80385097D01*
X163553134Y-80363946D01*
X163431082Y-80241894D01*
X163237578Y-80106399D01*
X163023492Y-80006570D01*
X163023486Y-80006567D01*
X162810000Y-79949364D01*
X162810000Y-80844498D01*
X162702315Y-80795320D01*
X162595763Y-80780000D01*
X162524237Y-80780000D01*
X162417685Y-80795320D01*
X162310000Y-80844498D01*
X162310000Y-79949364D01*
X162309999Y-79949364D01*
X162096513Y-80006567D01*
X162096507Y-80006570D01*
X161882422Y-80106399D01*
X161882420Y-80106400D01*
X161688926Y-80241886D01*
X161688920Y-80241891D01*
X161521891Y-80408920D01*
X161521886Y-80408926D01*
X161386400Y-80602420D01*
X161386399Y-80602422D01*
X161286570Y-80816507D01*
X161286567Y-80816513D01*
X161229364Y-81029999D01*
X161229364Y-81030000D01*
X162126314Y-81030000D01*
X162100507Y-81070156D01*
X162060000Y-81208111D01*
X162060000Y-81351889D01*
X162100507Y-81489844D01*
X162126314Y-81530000D01*
X161229364Y-81530000D01*
X161286567Y-81743486D01*
X161286570Y-81743492D01*
X161386399Y-81957578D01*
X161521894Y-82151082D01*
X161688917Y-82318105D01*
X161882421Y-82453600D01*
X162096507Y-82553429D01*
X162096516Y-82553433D01*
X162310000Y-82610634D01*
X162310000Y-81715501D01*
X162417685Y-81764680D01*
X162524237Y-81780000D01*
X162595763Y-81780000D01*
X162702315Y-81764680D01*
X162810000Y-81715501D01*
X162810000Y-82610633D01*
X163023483Y-82553433D01*
X163023492Y-82553429D01*
X163237578Y-82453600D01*
X163431078Y-82318108D01*
X163553133Y-82196053D01*
X163614456Y-82162568D01*
X163684148Y-82167552D01*
X163740082Y-82209423D01*
X163756997Y-82240401D01*
X163806202Y-82372328D01*
X163806206Y-82372335D01*
X163892452Y-82487544D01*
X163892455Y-82487547D01*
X164007664Y-82573793D01*
X164007671Y-82573797D01*
X164142517Y-82624091D01*
X164142516Y-82624091D01*
X164149444Y-82624835D01*
X164202127Y-82630500D01*
X165514546Y-82630499D01*
X165581585Y-82650184D01*
X165602227Y-82666818D01*
X166978181Y-84042771D01*
X167011666Y-84104094D01*
X167014500Y-84130452D01*
X167014500Y-87668942D01*
X166994815Y-87735981D01*
X166955598Y-87774479D01*
X166869209Y-87827764D01*
X166821342Y-87857289D01*
X166727681Y-87950951D01*
X166666358Y-87984436D01*
X166596666Y-87979452D01*
X166552319Y-87950951D01*
X166458657Y-87857289D01*
X166458656Y-87857288D01*
X166309334Y-87765186D01*
X166142797Y-87710001D01*
X166142795Y-87710000D01*
X166040010Y-87699500D01*
X165239998Y-87699500D01*
X165239980Y-87699501D01*
X165137203Y-87710000D01*
X165137200Y-87710001D01*
X164970668Y-87765185D01*
X164970663Y-87765187D01*
X164821342Y-87857289D01*
X164697289Y-87981342D01*
X164605187Y-88130663D01*
X164605186Y-88130666D01*
X164585689Y-88189505D01*
X164545916Y-88246949D01*
X164481400Y-88273772D01*
X164467983Y-88274500D01*
X163217017Y-88274500D01*
X163149978Y-88254815D01*
X163104223Y-88202011D01*
X163099311Y-88189505D01*
X163079814Y-88130666D01*
X162987712Y-87981344D01*
X162863656Y-87857288D01*
X162714334Y-87765186D01*
X162547797Y-87710001D01*
X162547795Y-87710000D01*
X162445010Y-87699500D01*
X161694998Y-87699500D01*
X161694980Y-87699501D01*
X161592203Y-87710000D01*
X161592200Y-87710001D01*
X161425668Y-87765185D01*
X161425663Y-87765187D01*
X161276342Y-87857289D01*
X161152288Y-87981343D01*
X161152283Y-87981349D01*
X161150241Y-87984661D01*
X161148247Y-87986453D01*
X161147807Y-87987011D01*
X161147711Y-87986935D01*
X161098291Y-88031383D01*
X161029328Y-88042602D01*
X160965247Y-88014755D01*
X160939168Y-87984656D01*
X160937319Y-87981659D01*
X160937316Y-87981655D01*
X160813345Y-87857684D01*
X160664124Y-87765643D01*
X160664119Y-87765641D01*
X160497697Y-87710494D01*
X160497690Y-87710493D01*
X160394986Y-87700000D01*
X160270000Y-87700000D01*
X160270000Y-90099999D01*
X159769999Y-90099999D01*
X159770000Y-90099998D01*
X159770000Y-89150000D01*
X158945001Y-89150000D01*
X139700000Y-89150000D01*
X139700000Y-88650000D01*
X158945000Y-88650000D01*
X159770000Y-88650000D01*
X159770000Y-87700000D01*
X159645027Y-87700000D01*
X159645012Y-87700001D01*
X159542302Y-87710494D01*
X159375880Y-87765641D01*
X159375875Y-87765643D01*
X159226654Y-87857684D01*
X159102684Y-87981654D01*
X159010643Y-88130875D01*
X159010641Y-88130880D01*
X158955494Y-88297302D01*
X158955493Y-88297309D01*
X158945000Y-88400013D01*
X158945000Y-88650000D01*
X139700000Y-88650000D01*
X139700000Y-81280000D01*
X145964341Y-81280000D01*
X145984936Y-81515403D01*
X145984938Y-81515413D01*
X146046094Y-81743655D01*
X146046096Y-81743659D01*
X146046097Y-81743663D01*
X146064080Y-81782227D01*
X146145965Y-81957830D01*
X146145967Y-81957834D01*
X146254281Y-82112521D01*
X146281505Y-82151401D01*
X146448599Y-82318495D01*
X146545384Y-82386265D01*
X146642165Y-82454032D01*
X146642167Y-82454033D01*
X146642170Y-82454035D01*
X146856337Y-82553903D01*
X147084592Y-82615063D01*
X147261034Y-82630500D01*
X147319999Y-82635659D01*
X147320000Y-82635659D01*
X147320001Y-82635659D01*
X147378966Y-82630500D01*
X147555408Y-82615063D01*
X147783663Y-82553903D01*
X147997830Y-82454035D01*
X148191401Y-82318495D01*
X148358495Y-82151401D01*
X148494035Y-81957830D01*
X148593903Y-81743663D01*
X148655063Y-81515408D01*
X148675659Y-81280000D01*
X148655063Y-81044592D01*
X148593903Y-80816337D01*
X148494035Y-80602171D01*
X148358495Y-80408599D01*
X148236567Y-80286671D01*
X148203084Y-80225351D01*
X148208068Y-80155659D01*
X148249939Y-80099725D01*
X148280915Y-80082810D01*
X148412331Y-80033796D01*
X148527546Y-79947546D01*
X148613796Y-79832331D01*
X148664091Y-79697483D01*
X148670500Y-79637873D01*
X148670499Y-77842128D01*
X148664091Y-77782517D01*
X148613796Y-77647669D01*
X148613795Y-77647668D01*
X148613793Y-77647664D01*
X148527547Y-77532455D01*
X148527544Y-77532452D01*
X148412335Y-77446206D01*
X148412328Y-77446202D01*
X148277482Y-77395908D01*
X148277483Y-77395908D01*
X148217883Y-77389501D01*
X148217881Y-77389500D01*
X148217873Y-77389500D01*
X148217864Y-77389500D01*
X146422129Y-77389500D01*
X146422123Y-77389501D01*
X146362516Y-77395908D01*
X146227671Y-77446202D01*
X146227664Y-77446206D01*
X146112455Y-77532452D01*
X146112452Y-77532455D01*
X146026206Y-77647664D01*
X146026202Y-77647671D01*
X145975908Y-77782517D01*
X145969501Y-77842116D01*
X145969501Y-77842123D01*
X145969500Y-77842135D01*
X145969500Y-79637870D01*
X145969501Y-79637876D01*
X145975908Y-79697483D01*
X146026202Y-79832328D01*
X146026206Y-79832335D01*
X146112452Y-79947544D01*
X146112455Y-79947547D01*
X146227664Y-80033793D01*
X146227671Y-80033797D01*
X146359081Y-80082810D01*
X146415015Y-80124681D01*
X146439432Y-80190145D01*
X146424580Y-80258418D01*
X146403430Y-80286673D01*
X146281503Y-80408600D01*
X146145965Y-80602169D01*
X146145964Y-80602171D01*
X146046098Y-80816335D01*
X146046094Y-80816344D01*
X145984938Y-81044586D01*
X145984936Y-81044596D01*
X145964341Y-81279999D01*
X145964341Y-81280000D01*
X139700000Y-81280000D01*
X139700000Y-68704000D01*
X139719685Y-68636961D01*
X139772489Y-68591206D01*
X139824000Y-68580000D01*
X180216000Y-68580000D01*
X180283039Y-68599685D01*
G37*
%TD.AperFunction*%
%TD*%
M02*
