%TF.GenerationSoftware,KiCad,Pcbnew,7.0.8*%
%TF.CreationDate,2024-04-30T13:20:46-05:00*%
%TF.ProjectId,me433_board,6d653433-335f-4626-9f61-72642e6b6963,rev?*%
%TF.SameCoordinates,Original*%
%TF.FileFunction,Legend,Top*%
%TF.FilePolarity,Positive*%
%FSLAX46Y46*%
G04 Gerber Fmt 4.6, Leading zero omitted, Abs format (unit mm)*
G04 Created by KiCad (PCBNEW 7.0.8) date 2024-04-30 13:20:46*
%MOMM*%
%LPD*%
G01*
G04 APERTURE LIST*
%ADD10C,0.300000*%
%ADD11C,0.150000*%
%ADD12C,0.120000*%
G04 APERTURE END LIST*
D10*
X148731653Y-73317971D02*
X148660225Y-73389400D01*
X148660225Y-73389400D02*
X148445939Y-73460828D01*
X148445939Y-73460828D02*
X148303082Y-73460828D01*
X148303082Y-73460828D02*
X148088796Y-73389400D01*
X148088796Y-73389400D02*
X147945939Y-73246542D01*
X147945939Y-73246542D02*
X147874510Y-73103685D01*
X147874510Y-73103685D02*
X147803082Y-72817971D01*
X147803082Y-72817971D02*
X147803082Y-72603685D01*
X147803082Y-72603685D02*
X147874510Y-72317971D01*
X147874510Y-72317971D02*
X147945939Y-72175114D01*
X147945939Y-72175114D02*
X148088796Y-72032257D01*
X148088796Y-72032257D02*
X148303082Y-71960828D01*
X148303082Y-71960828D02*
X148445939Y-71960828D01*
X148445939Y-71960828D02*
X148660225Y-72032257D01*
X148660225Y-72032257D02*
X148731653Y-72103685D01*
X149374510Y-73460828D02*
X149374510Y-71960828D01*
X150017368Y-73460828D02*
X150017368Y-72675114D01*
X150017368Y-72675114D02*
X149945939Y-72532257D01*
X149945939Y-72532257D02*
X149803082Y-72460828D01*
X149803082Y-72460828D02*
X149588796Y-72460828D01*
X149588796Y-72460828D02*
X149445939Y-72532257D01*
X149445939Y-72532257D02*
X149374510Y-72603685D01*
X151374511Y-73460828D02*
X151374511Y-72675114D01*
X151374511Y-72675114D02*
X151303082Y-72532257D01*
X151303082Y-72532257D02*
X151160225Y-72460828D01*
X151160225Y-72460828D02*
X150874511Y-72460828D01*
X150874511Y-72460828D02*
X150731653Y-72532257D01*
X151374511Y-73389400D02*
X151231653Y-73460828D01*
X151231653Y-73460828D02*
X150874511Y-73460828D01*
X150874511Y-73460828D02*
X150731653Y-73389400D01*
X150731653Y-73389400D02*
X150660225Y-73246542D01*
X150660225Y-73246542D02*
X150660225Y-73103685D01*
X150660225Y-73103685D02*
X150731653Y-72960828D01*
X150731653Y-72960828D02*
X150874511Y-72889400D01*
X150874511Y-72889400D02*
X151231653Y-72889400D01*
X151231653Y-72889400D02*
X151374511Y-72817971D01*
X152088796Y-73460828D02*
X152088796Y-72460828D01*
X152088796Y-72746542D02*
X152160225Y-72603685D01*
X152160225Y-72603685D02*
X152231654Y-72532257D01*
X152231654Y-72532257D02*
X152374511Y-72460828D01*
X152374511Y-72460828D02*
X152517368Y-72460828D01*
X153231653Y-73460828D02*
X153088796Y-73389400D01*
X153088796Y-73389400D02*
X153017367Y-73246542D01*
X153017367Y-73246542D02*
X153017367Y-71960828D01*
X153803081Y-73460828D02*
X153803081Y-72460828D01*
X153803081Y-71960828D02*
X153731653Y-72032257D01*
X153731653Y-72032257D02*
X153803081Y-72103685D01*
X153803081Y-72103685D02*
X153874510Y-72032257D01*
X153874510Y-72032257D02*
X153803081Y-71960828D01*
X153803081Y-71960828D02*
X153803081Y-72103685D01*
X155088796Y-73389400D02*
X154945939Y-73460828D01*
X154945939Y-73460828D02*
X154660225Y-73460828D01*
X154660225Y-73460828D02*
X154517367Y-73389400D01*
X154517367Y-73389400D02*
X154445939Y-73246542D01*
X154445939Y-73246542D02*
X154445939Y-72675114D01*
X154445939Y-72675114D02*
X154517367Y-72532257D01*
X154517367Y-72532257D02*
X154660225Y-72460828D01*
X154660225Y-72460828D02*
X154945939Y-72460828D01*
X154945939Y-72460828D02*
X155088796Y-72532257D01*
X155088796Y-72532257D02*
X155160225Y-72675114D01*
X155160225Y-72675114D02*
X155160225Y-72817971D01*
X155160225Y-72817971D02*
X154445939Y-72960828D01*
D11*
X146986666Y-75864819D02*
X146986666Y-76579104D01*
X146986666Y-76579104D02*
X146939047Y-76721961D01*
X146939047Y-76721961D02*
X146843809Y-76817200D01*
X146843809Y-76817200D02*
X146700952Y-76864819D01*
X146700952Y-76864819D02*
X146605714Y-76864819D01*
X147415238Y-75960057D02*
X147462857Y-75912438D01*
X147462857Y-75912438D02*
X147558095Y-75864819D01*
X147558095Y-75864819D02*
X147796190Y-75864819D01*
X147796190Y-75864819D02*
X147891428Y-75912438D01*
X147891428Y-75912438D02*
X147939047Y-75960057D01*
X147939047Y-75960057D02*
X147986666Y-76055295D01*
X147986666Y-76055295D02*
X147986666Y-76150533D01*
X147986666Y-76150533D02*
X147939047Y-76293390D01*
X147939047Y-76293390D02*
X147367619Y-76864819D01*
X147367619Y-76864819D02*
X147986666Y-76864819D01*
X166884819Y-81613333D02*
X167599104Y-81613333D01*
X167599104Y-81613333D02*
X167741961Y-81660952D01*
X167741961Y-81660952D02*
X167837200Y-81756190D01*
X167837200Y-81756190D02*
X167884819Y-81899047D01*
X167884819Y-81899047D02*
X167884819Y-81994285D01*
X167884819Y-80613333D02*
X167884819Y-81184761D01*
X167884819Y-80899047D02*
X166884819Y-80899047D01*
X166884819Y-80899047D02*
X167027676Y-80994285D01*
X167027676Y-80994285D02*
X167122914Y-81089523D01*
X167122914Y-81089523D02*
X167170533Y-81184761D01*
X166473333Y-87704819D02*
X166140000Y-87228628D01*
X165901905Y-87704819D02*
X165901905Y-86704819D01*
X165901905Y-86704819D02*
X166282857Y-86704819D01*
X166282857Y-86704819D02*
X166378095Y-86752438D01*
X166378095Y-86752438D02*
X166425714Y-86800057D01*
X166425714Y-86800057D02*
X166473333Y-86895295D01*
X166473333Y-86895295D02*
X166473333Y-87038152D01*
X166473333Y-87038152D02*
X166425714Y-87133390D01*
X166425714Y-87133390D02*
X166378095Y-87181009D01*
X166378095Y-87181009D02*
X166282857Y-87228628D01*
X166282857Y-87228628D02*
X165901905Y-87228628D01*
X167425714Y-87704819D02*
X166854286Y-87704819D01*
X167140000Y-87704819D02*
X167140000Y-86704819D01*
X167140000Y-86704819D02*
X167044762Y-86847676D01*
X167044762Y-86847676D02*
X166949524Y-86942914D01*
X166949524Y-86942914D02*
X166854286Y-86990533D01*
X160306905Y-87704819D02*
X160306905Y-86704819D01*
X160306905Y-86704819D02*
X160545000Y-86704819D01*
X160545000Y-86704819D02*
X160687857Y-86752438D01*
X160687857Y-86752438D02*
X160783095Y-86847676D01*
X160783095Y-86847676D02*
X160830714Y-86942914D01*
X160830714Y-86942914D02*
X160878333Y-87133390D01*
X160878333Y-87133390D02*
X160878333Y-87276247D01*
X160878333Y-87276247D02*
X160830714Y-87466723D01*
X160830714Y-87466723D02*
X160783095Y-87561961D01*
X160783095Y-87561961D02*
X160687857Y-87657200D01*
X160687857Y-87657200D02*
X160545000Y-87704819D01*
X160545000Y-87704819D02*
X160306905Y-87704819D01*
X161830714Y-87704819D02*
X161259286Y-87704819D01*
X161545000Y-87704819D02*
X161545000Y-86704819D01*
X161545000Y-86704819D02*
X161449762Y-86847676D01*
X161449762Y-86847676D02*
X161354524Y-86942914D01*
X161354524Y-86942914D02*
X161259286Y-86990533D01*
D12*
%TO.C,J2*%
X145990000Y-78740000D02*
X145990000Y-77410000D01*
X145990000Y-82610000D02*
X148650000Y-82610000D01*
X145990000Y-80010000D02*
X145990000Y-82610000D01*
X145990000Y-80010000D02*
X148650000Y-80010000D01*
X145990000Y-77410000D02*
X147320000Y-77410000D01*
X148650000Y-80010000D02*
X148650000Y-82610000D01*
%TO.C,J1*%
X165100000Y-79950000D02*
X166430000Y-79950000D01*
X161230000Y-79950000D02*
X161230000Y-82610000D01*
X163830000Y-79950000D02*
X161230000Y-79950000D01*
X163830000Y-79950000D02*
X163830000Y-82610000D01*
X166430000Y-79950000D02*
X166430000Y-81280000D01*
X163830000Y-82610000D02*
X161230000Y-82610000D01*
%TO.C,R1*%
X166412936Y-88165000D02*
X166867064Y-88165000D01*
X166412936Y-89635000D02*
X166867064Y-89635000D01*
%TO.C,D1*%
X159185000Y-89860000D02*
X162045000Y-89860000D01*
X162045000Y-87940000D02*
X159185000Y-87940000D01*
X159185000Y-87940000D02*
X159185000Y-89860000D01*
%TD*%
M02*
